<svg xmlns="http://www.w3.org/2000/svg" viewBox="0 0 1000 500" preserveAspectRatio="xMidYMid slice">
<g fill="none" stroke="#065f46" stroke-width="1.1" stroke-opacity="0.5" stroke-linejoin="round">
<path d="M185.0 150.0 L186.0 151.1 L186.8 152.3 L187.3 153.6 L187.3 154.9 L186.7 156.1 L185.6 157.0 L184.1 157.7 L182.4 158.1 L180.7 158.3 L179.1 158.5 L177.8 158.7 L176.8 159.2 L175.9 159.8 L175.0 160.7 L174.0 161.8 L172.9 162.8 L171.5 163.7 L170.0 164.2 L168.4 164.3 L166.8 164.0 L165.5 163.2 L164.3 162.1 L163.4 161.0 L162.7 159.8 L162.1 158.8 L161.3 158.1 L160.3 157.6 L159.0 157.2 L157.5 156.8 L155.9 156.3 L154.3 155.7 L153.0 154.8 L152.2 153.7 L151.9 152.5 L152.2 151.2 L153.0 150.0 L154.1 148.9 L155.3 148.0 L156.4 147.2 L157.2 146.4 L157.7 145.5 L157.9 144.5 L157.9 143.4 L157.9 142.1 L158.0 140.7 L158.6 139.4 L159.5 138.3 L160.8 137.5 L162.3 137.2 L164.1 137.3 L165.8 137.7 L167.3 138.2 L168.7 138.8 L170.0 139.3 L171.2 139.5 L172.4 139.4 L173.7 139.1 L175.3 138.7 L177.0 138.3 L178.7 138.2 L180.4 138.4 L181.9 139.0 L182.9 139.9 L183.6 141.1 L183.7 142.5 L183.6 143.9 L183.3 145.2 L183.1 146.3 L183.1 147.3 L183.4 148.2 L184.1 149.0 L185.0 150.0Z"/>
<path d="M202.6 150.1 L204.6 152.4 L206.2 155.0 L207.0 157.7 L206.6 160.3 L205.0 162.5 L202.4 164.3 L199.2 165.6 L195.7 166.4 L192.3 166.9 L189.3 167.3 L186.9 168.0 L184.9 169.1 L183.1 170.7 L181.4 172.8 L179.4 175.0 L176.9 177.1 L174.0 178.8 L170.8 179.7 L167.5 179.6 L164.4 178.6 L161.6 176.8 L159.4 174.6 L157.6 172.2 L156.1 169.9 L154.6 168.1 L152.8 166.8 L150.5 165.9 L147.7 165.2 L144.4 164.5 L141.0 163.5 L137.9 162.1 L135.4 160.1 L134.0 157.8 L133.8 155.2 L134.7 152.6 L136.6 150.1 L138.9 147.9 L141.2 146.0 L143.2 144.3 L144.5 142.6 L145.2 140.8 L145.3 138.6 L145.1 136.1 L145.1 133.3 L145.6 130.5 L146.9 127.9 L149.0 125.8 L151.9 124.5 L155.2 124.1 L158.8 124.4 L162.3 125.3 L165.5 126.4 L168.3 127.5 L170.8 128.2 L173.2 128.3 L175.8 127.9 L178.7 127.1 L182.0 126.2 L185.5 125.5 L189.1 125.4 L192.5 126.0 L195.3 127.4 L197.2 129.5 L198.3 132.1 L198.5 135.0 L198.2 137.8 L197.7 140.3 L197.5 142.5 L197.8 144.5 L198.8 146.2 L200.5 148.1 L202.6 150.1Z"/>
<path d="M220.9 150.7 L224.0 154.3 L226.1 158.2 L226.8 162.3 L225.7 166.1 L222.9 169.4 L218.6 172.0 L213.6 173.7 L208.3 174.8 L203.4 175.6 L199.2 176.5 L195.8 177.8 L193.1 179.8 L190.6 182.6 L188.0 185.9 L184.8 189.4 L181.0 192.5 L176.5 194.7 L171.5 195.7 L166.6 195.2 L161.9 193.3 L157.9 190.4 L154.7 186.9 L152.0 183.4 L149.7 180.3 L147.2 177.9 L144.2 176.2 L140.3 175.1 L135.7 174.2 L130.6 173.1 L125.4 171.5 L120.9 169.2 L117.6 166.1 L116.0 162.4 L116.1 158.4 L117.9 154.4 L120.9 150.7 L124.3 147.5 L127.6 144.7 L130.2 142.1 L131.7 139.4 L132.2 136.4 L132.0 133.0 L131.7 129.0 L131.7 124.7 L132.7 120.4 L134.9 116.7 L138.5 113.9 L143.1 112.3 L148.3 111.9 L153.8 112.6 L158.9 114.1 L163.6 115.7 L167.8 117.0 L171.5 117.7 L175.3 117.5 L179.3 116.5 L183.8 115.0 L188.9 113.6 L194.3 112.7 L199.7 112.7 L204.5 114.0 L208.4 116.4 L211.0 119.9 L212.3 124.1 L212.5 128.4 L212.0 132.5 L211.5 136.2 L211.6 139.4 L212.6 142.2 L214.6 144.8 L217.5 147.6 L220.9 150.7Z"/>
<path d="M239.8 151.7 L243.7 156.5 L246.2 161.9 L246.4 167.2 L244.3 172.2 L239.9 176.3 L233.9 179.5 L227.0 181.7 L220.1 183.1 L213.9 184.3 L208.8 185.8 L204.7 188.0 L201.3 191.2 L198.1 195.3 L194.6 200.0 L190.2 204.7 L184.9 208.6 L178.7 211.1 L172.0 211.9 L165.4 210.6 L159.4 207.7 L154.2 203.6 L150.0 198.9 L146.4 194.5 L143.1 190.7 L139.5 187.9 L134.9 186.1 L129.4 184.9 L122.8 183.9 L115.8 182.4 L109.0 180.0 L103.3 176.6 L99.5 172.2 L98.0 167.1 L98.8 161.7 L101.7 156.5 L105.8 151.7 L110.3 147.4 L114.2 143.7 L117.0 140.2 L118.4 136.4 L118.5 132.2 L117.8 127.3 L117.3 121.7 L117.5 116.0 L119.2 110.4 L122.6 105.7 L127.8 102.4 L134.3 100.7 L141.5 100.6 L148.8 101.8 L155.6 103.7 L161.6 105.7 L167.0 107.0 L172.0 107.3 L177.1 106.5 L182.6 104.8 L188.9 102.6 L195.8 100.7 L203.1 99.7 L210.1 100.2 L216.3 102.3 L221.1 106.1 L224.1 111.0 L225.5 116.7 L225.6 122.4 L225.1 127.8 L224.8 132.5 L225.4 136.5 L227.4 140.1 L230.8 143.6 L235.2 147.3 L239.8 151.7Z"/>
<path d="M259.0 152.4 L263.6 158.6 L266.0 165.3 L265.5 171.9 L262.0 177.9 L255.9 182.9 L248.0 186.6 L239.3 189.1 L231.0 191.0 L223.8 192.7 L217.9 195.0 L213.3 198.3 L209.4 202.9 L205.6 208.5 L201.1 214.5 L195.4 220.3 L188.4 224.8 L180.5 227.4 L172.1 227.6 L163.9 225.4 L156.5 221.3 L150.2 215.9 L145.1 210.2 L140.6 205.0 L136.2 200.9 L131.1 198.0 L124.9 196.2 L117.4 195.0 L108.8 193.8 L100.0 191.8 L91.7 188.6 L85.2 184.0 L81.2 178.2 L80.1 171.6 L81.9 164.8 L85.9 158.3 L91.0 152.4 L96.3 147.2 L100.6 142.6 L103.2 138.0 L104.1 133.1 L103.6 127.5 L102.5 121.0 L101.7 114.0 L102.3 106.7 L105.0 100.1 L109.9 94.6 L117.0 91.0 L125.4 89.4 L134.6 89.7 L143.6 91.4 L151.9 93.7 L159.3 95.7 L165.8 96.8 L172.1 96.5 L178.5 94.9 L185.7 92.2 L193.7 89.4 L202.5 87.1 L211.6 86.3 L220.2 87.4 L227.5 90.7 L232.9 95.8 L236.2 102.4 L237.5 109.5 L237.6 116.6 L237.2 123.0 L237.5 128.6 L239.1 133.4 L242.4 137.7 L247.3 142.0 L253.2 146.9 L259.0 152.4Z"/>
<path d="M278.5 152.5 L283.4 160.1 L285.4 168.1 L283.7 175.9 L278.5 182.8 L270.5 188.5 L260.7 192.6 L250.5 195.6 L241.0 197.9 L233.0 200.4 L226.7 203.7 L221.8 208.4 L217.5 214.5 L212.9 221.6 L207.3 229.0 L200.1 235.6 L191.5 240.5 L181.7 242.8 L171.6 242.2 L161.9 238.9 L153.2 233.5 L146.0 227.0 L139.8 220.5 L134.3 214.8 L128.6 210.5 L122.0 207.7 L113.8 206.1 L104.2 205.0 L93.7 203.5 L83.0 200.8 L73.6 196.6 L66.5 190.7 L62.7 183.4 L62.4 175.3 L65.2 167.1 L70.3 159.4 L76.5 152.5 L82.2 146.4 L86.4 140.8 L88.6 135.1 L88.7 129.0 L87.4 121.9 L85.8 113.8 L85.0 105.2 L86.3 96.7 L90.2 89.0 L96.9 83.0 L105.9 79.3 L116.5 78.0 L127.5 78.8 L138.2 80.9 L147.8 83.4 L156.4 85.3 L164.1 85.8 L171.6 84.7 L179.5 82.0 L188.3 78.4 L198.2 74.8 L208.9 72.4 L219.7 72.0 L229.6 74.0 L237.8 78.7 L243.7 85.4 L247.1 93.6 L248.4 102.2 L248.5 110.5 L248.5 117.8 L249.6 124.1 L252.5 129.5 L257.5 134.5 L264.2 139.7 L271.6 145.7 L278.5 152.5Z"/>
<path d="M297.9 151.6 L302.8 160.7 L304.0 170.0 L300.8 178.9 L293.7 186.6 L283.7 192.8 L272.2 197.4 L260.6 200.9 L250.2 203.8 L241.8 207.2 L235.2 211.8 L230.1 218.0 L225.3 225.7 L220.0 234.4 L213.1 243.0 L204.4 250.3 L193.9 255.2 L182.3 257.0 L170.5 255.4 L159.4 250.8 L149.6 244.2 L141.3 236.7 L134.2 229.5 L127.5 223.6 L120.3 219.4 L111.9 217.0 L101.7 215.6 L89.9 214.5 L77.3 212.6 L65.1 209.2 L54.8 203.8 L47.5 196.4 L44.2 187.5 L44.9 177.9 L48.9 168.4 L55.1 159.5 L61.9 151.6 L67.7 144.6 L71.5 138.0 L72.9 131.2 L72.0 123.7 L69.8 115.0 L67.8 105.4 L67.3 95.3 L69.4 85.5 L74.9 77.1 L83.5 70.8 L94.7 67.2 L107.3 66.3 L120.2 67.6 L132.4 70.0 L143.3 72.5 L152.9 73.9 L161.7 73.6 L170.5 71.3 L179.9 67.5 L190.6 62.9 L202.4 58.9 L214.9 56.5 L227.2 56.7 L238.3 60.0 L247.2 66.2 L253.4 74.6 L256.8 84.4 L258.1 94.3 L258.4 103.6 L259.2 111.7 L261.4 118.6 L266.0 124.5 L272.8 130.3 L281.3 136.4 L290.2 143.5 L297.9 151.6Z"/>
<path d="M317.1 149.9 L321.7 160.3 L321.6 170.9 L316.7 180.8 L307.6 189.3 L295.6 196.0 L282.4 201.0 L269.8 205.0 L258.8 208.8 L250.2 213.3 L243.6 219.4 L238.4 227.3 L233.2 236.7 L226.9 246.9 L218.6 256.5 L208.2 264.2 L195.8 268.8 L182.4 269.8 L168.9 267.0 L156.4 261.1 L145.5 253.3 L136.3 244.9 L128.1 237.4 L120.1 231.5 L111.3 227.8 L100.8 225.8 L88.4 224.8 L74.4 223.6 L59.9 221.2 L46.4 216.8 L35.5 210.0 L28.5 201.0 L25.9 190.5 L27.7 179.4 L32.9 168.6 L40.0 158.7 L47.1 149.9 L52.7 142.0 L55.7 134.3 L55.9 126.3 L53.9 117.2 L50.9 107.0 L48.6 95.7 L48.6 84.2 L52.0 73.4 L59.3 64.4 L70.1 58.0 L83.5 54.8 L98.2 54.3 L112.8 56.0 L126.3 58.6 L138.3 60.8 L148.9 61.4 L158.8 60.0 L168.9 56.4 L180.0 51.3 L192.4 45.9 L206.1 41.5 L220.4 39.5 L234.2 40.7 L246.3 45.4 L255.6 53.3 L261.9 63.4 L265.3 74.7 L266.8 85.9 L267.6 96.0 L269.4 104.7 L273.2 112.0 L279.6 118.5 L288.5 124.9 L298.8 132.0 L309.0 140.3 L317.1 149.9Z"/>
<path d="M336.3 147.6 L340.0 159.4 L338.4 171.2 L331.4 182.0 L320.2 191.1 L306.3 198.3 L291.8 203.8 L278.4 208.4 L267.2 213.2 L258.6 219.1 L252.2 226.9 L246.8 236.6 L241.1 247.8 L233.7 259.3 L223.9 269.7 L211.6 277.5 L197.2 281.6 L182.0 281.5 L167.0 277.3 L153.2 270.1 L141.3 261.2 L131.0 252.3 L121.6 244.7 L112.2 239.2 L101.5 236.1 L88.8 234.7 L74.1 233.9 L58.0 232.6 L41.8 229.5 L27.3 223.9 L16.1 215.5 L9.6 204.8 L8.1 192.7 L11.1 180.2 L17.4 168.2 L25.1 157.3 L32.3 147.6 L37.2 138.7 L39.0 130.0 L37.8 120.6 L34.5 110.0 L30.8 98.1 L28.5 85.3 L29.3 72.4 L34.3 60.8 L43.7 51.4 L56.8 45.2 L72.5 42.3 L89.1 42.4 L105.2 44.4 L119.9 46.9 L132.9 48.5 L144.5 48.1 L155.5 45.2 L167.0 40.2 L179.7 33.9 L194.1 27.7 L209.7 23.3 L225.6 21.9 L240.6 24.3 L253.5 30.7 L263.2 40.4 L269.5 52.3 L272.9 64.9 L274.7 77.1 L276.3 87.9 L279.4 96.9 L285.1 104.6 L293.7 111.6 L304.8 118.8 L316.8 127.0 L328.0 136.6 L336.3 147.6Z"/>
<path d="M537.5 300.0 L536.4 301.5 L536.0 303.0 L536.5 304.6 L537.3 306.6 L538.1 308.9 L538.5 311.2 L538.3 313.4 L537.3 315.2 L535.7 316.5 L533.8 317.3 L531.9 317.8 L530.0 318.2 L528.3 318.6 L526.6 319.0 L524.9 319.4 L523.3 319.6 L521.6 319.6 L520.0 319.5 L518.4 319.3 L516.8 319.3 L515.0 319.6 L513.1 320.0 L510.9 320.4 L508.7 320.5 L506.7 319.9 L505.2 318.5 L504.4 316.4 L504.3 313.9 L504.7 311.3 L505.2 309.0 L505.4 307.2 L504.8 305.8 L503.5 304.6 L501.5 303.4 L499.3 301.9 L497.5 300.0 L496.5 297.8 L496.7 295.7 L497.8 293.8 L499.7 292.2 L501.9 291.1 L503.9 290.2 L505.5 289.3 L506.6 288.2 L507.4 286.8 L508.1 285.1 L508.9 283.4 L510.0 281.8 L511.4 280.6 L512.9 279.6 L514.6 278.8 L516.3 278.2 L518.1 277.8 L520.0 277.5 L521.9 277.5 L523.7 278.0 L525.4 279.0 L526.7 280.6 L527.8 282.4 L528.7 284.1 L529.7 285.5 L530.9 286.3 L532.7 286.7 L534.9 286.9 L537.4 287.2 L539.8 288.0 L541.6 289.4 L542.4 291.4 L542.1 293.8 L540.9 296.1 L539.2 298.2 L537.5 300.0Z"/>
<path d="M552.7 299.5 L551.0 302.4 L550.9 305.3 L552.2 308.7 L554.1 312.7 L555.8 317.3 L556.4 321.9 L555.6 326.0 L553.3 329.3 L550.0 331.5 L546.1 332.9 L542.3 333.7 L538.7 334.4 L535.3 335.2 L532.2 336.1 L529.0 337.0 L525.8 337.5 L522.6 337.7 L519.5 337.6 L516.3 337.6 L513.0 337.8 L509.5 338.4 L505.7 339.3 L501.5 339.9 L497.4 339.7 L493.7 338.1 L491.0 335.0 L489.7 330.7 L489.7 325.7 L490.4 320.8 L491.2 316.6 L491.0 313.4 L489.5 310.9 L486.4 308.8 L482.2 306.4 L477.9 303.3 L474.7 299.5 L473.3 295.2 L474.1 291.1 L476.8 287.5 L480.8 284.7 L485.1 282.7 L488.9 280.9 L491.7 279.1 L493.5 276.6 L494.8 273.6 L496.0 270.1 L497.5 266.6 L499.7 263.5 L502.4 261.0 L505.5 259.2 L508.8 257.9 L512.3 256.9 L515.8 256.1 L519.5 255.7 L523.1 256.0 L526.6 257.2 L529.7 259.3 L532.3 262.3 L534.5 265.7 L536.4 268.7 L538.4 271.0 L541.2 272.3 L544.9 272.8 L549.4 273.1 L554.3 273.9 L558.7 275.7 L561.7 278.8 L562.8 282.9 L561.7 287.6 L559.0 292.2 L555.6 296.2 L552.7 299.5Z"/>
<path d="M567.6 298.8 L565.8 303.1 L566.6 307.6 L569.1 312.8 L572.3 319.1 L574.8 326.0 L575.3 332.8 L573.6 338.7 L569.7 343.2 L564.3 346.1 L558.4 347.8 L552.7 348.8 L547.4 349.9 L542.6 351.2 L538.0 352.7 L533.4 354.2 L528.8 355.3 L524.1 355.8 L519.3 356.1 L514.5 356.3 L509.6 356.8 L504.2 357.9 L498.4 359.0 L492.3 359.6 L486.4 358.7 L481.3 355.8 L477.8 350.8 L476.2 344.1 L476.3 336.7 L477.2 329.7 L477.9 323.9 L477.0 319.5 L473.8 316.2 L468.5 313.1 L462.0 309.4 L455.9 304.6 L451.6 298.8 L450.3 292.5 L452.3 286.4 L457.1 281.3 L463.3 277.4 L469.6 274.5 L474.9 271.9 L478.5 268.8 L480.8 264.9 L482.3 259.9 L483.9 254.5 L486.1 249.1 L489.4 244.4 L493.5 240.8 L498.3 238.2 L503.4 236.5 L508.6 235.3 L513.9 234.5 L519.3 234.3 L524.6 234.9 L529.7 236.9 L534.3 240.2 L538.1 244.5 L541.3 249.2 L544.4 253.2 L547.8 256.0 L552.3 257.5 L558.2 258.0 L565.1 258.4 L572.3 259.9 L578.3 263.0 L582.1 268.1 L582.8 274.5 L580.6 281.6 L576.3 288.3 L571.4 294.0 L567.6 298.8Z"/>
<path d="M582.5 298.4 L581.4 304.0 L583.4 310.2 L587.6 317.5 L592.1 326.1 L595.1 335.3 L595.3 344.2 L592.2 351.7 L586.3 357.1 L578.8 360.4 L570.7 362.3 L563.1 363.5 L556.3 365.0 L550.1 366.9 L544.2 369.3 L538.3 371.6 L532.2 373.5 L526.0 374.6 L519.6 375.2 L513.2 375.8 L506.5 376.8 L499.3 378.2 L491.5 379.4 L483.5 379.6 L476.0 377.8 L469.7 373.3 L465.6 366.0 L463.9 356.9 L464.1 347.3 L465.1 338.5 L465.2 331.4 L463.0 326.1 L457.8 322.0 L450.0 318.0 L441.2 312.9 L433.3 306.3 L428.5 298.4 L428.0 290.0 L431.8 282.1 L438.8 275.6 L447.4 270.8 L455.5 267.0 L461.9 263.4 L466.0 259.0 L468.3 253.2 L469.9 246.1 L471.7 238.4 L474.8 231.1 L479.3 224.9 L485.0 220.4 L491.6 217.4 L498.5 215.4 L505.5 214.2 L512.6 213.5 L519.6 213.5 L526.6 214.8 L533.2 217.6 L539.1 222.0 L544.2 227.5 L548.6 233.1 L553.0 237.8 L558.0 240.8 L564.6 242.2 L572.8 242.6 L582.1 243.4 L591.2 245.7 L598.6 250.5 L602.6 257.8 L602.5 266.7 L598.8 276.1 L592.8 284.8 L586.7 292.2 L582.5 298.4Z"/>
<path d="M597.8 298.6 L597.9 305.7 L601.7 313.6 L607.7 323.1 L613.5 334.1 L616.7 345.7 L616.1 356.5 L611.2 365.3 L603.0 371.4 L593.1 374.9 L583.0 376.8 L573.6 378.2 L565.3 380.2 L558.0 383.1 L550.9 386.5 L543.8 389.9 L536.3 392.7 L528.5 394.5 L520.5 395.7 L512.3 396.7 L503.8 398.1 L494.7 399.6 L485.1 400.8 L475.3 400.3 L466.3 397.2 L459.1 390.7 L454.5 381.1 L452.8 369.7 L453.1 358.0 L453.7 347.7 L452.9 339.6 L448.8 333.7 L441.2 328.9 L430.8 323.8 L419.7 317.3 L410.6 308.7 L405.8 298.6 L406.6 288.1 L412.6 278.6 L422.2 271.0 L433.1 265.2 L442.7 260.5 L449.8 255.7 L453.9 249.7 L456.0 241.8 L457.4 232.3 L459.5 222.3 L463.5 213.1 L469.3 205.6 L476.8 200.3 L485.3 197.1 L494.1 195.2 L502.9 194.1 L511.7 193.7 L520.5 194.1 L529.0 195.9 L537.1 199.5 L544.4 204.9 L550.7 211.3 L556.4 217.6 L562.3 222.6 L569.2 225.5 L577.9 226.7 L588.6 227.1 L600.1 228.4 L611.0 232.0 L619.1 238.8 L622.8 248.5 L621.6 260.0 L616.2 271.7 L608.8 282.3 L601.9 291.1 L597.8 298.6Z"/>
<path d="M613.7 299.6 L615.5 308.3 L621.6 318.1 L629.5 329.9 L636.3 343.4 L639.4 357.3 L637.4 369.8 L630.4 379.5 L619.6 385.9 L607.3 389.4 L595.0 391.3 L584.1 393.1 L574.6 395.9 L566.2 399.9 L558.1 404.7 L549.7 409.4 L540.8 413.2 L531.4 415.8 L521.7 417.6 L511.8 419.0 L501.4 420.6 L490.5 422.2 L479.0 423.0 L467.6 421.5 L457.3 416.8 L449.4 408.1 L444.6 396.2 L442.8 382.5 L442.9 369.1 L442.9 357.6 L440.5 348.9 L434.2 342.5 L423.8 337.1 L410.7 330.9 L397.7 322.6 L387.8 311.9 L383.7 299.6 L386.4 287.2 L395.1 276.2 L407.3 267.4 L420.2 260.8 L431.0 255.2 L438.2 249.0 L442.0 241.0 L443.5 230.7 L444.6 218.7 L447.2 206.3 L452.2 195.3 L459.6 186.7 L469.0 181.0 L479.5 177.7 L490.2 176.1 L500.9 175.3 L511.4 175.2 L521.7 176.1 L531.8 178.5 L541.4 182.8 L550.0 189.0 L557.7 196.0 L564.8 202.7 L572.3 207.6 L581.3 210.3 L592.4 211.2 L605.4 211.8 L619.1 213.8 L631.3 219.1 L639.7 228.1 L642.7 240.4 L640.0 254.5 L632.9 268.4 L624.2 280.7 L617.0 290.9 L613.7 299.6Z"/>
<path d="M630.4 301.3 L634.5 311.5 L643.0 323.5 L652.8 337.8 L660.3 353.7 L662.8 369.6 L658.9 383.6 L649.3 394.0 L635.8 400.5 L620.9 403.9 L606.8 405.8 L594.5 408.1 L584.1 411.9 L574.8 417.4 L565.7 423.8 L556.1 430.0 L545.7 435.0 L534.7 438.5 L523.3 440.8 L511.5 442.6 L499.3 444.3 L486.4 445.6 L473.2 445.7 L460.4 443.0 L449.0 436.3 L440.5 425.4 L435.5 411.2 L433.6 395.5 L433.3 380.6 L432.2 368.3 L427.9 359.2 L418.9 352.4 L405.5 346.3 L389.8 338.9 L375.2 328.7 L365.2 315.9 L362.4 301.3 L367.5 287.0 L379.0 274.6 L393.9 264.9 L408.5 257.5 L419.9 250.7 L426.8 242.9 L429.8 232.6 L430.5 219.6 L431.4 204.9 L434.5 190.3 L440.8 177.6 L450.1 168.2 L461.5 162.3 L474.1 159.4 L486.7 158.2 L499.2 157.9 L511.3 158.2 L523.3 159.4 L534.9 162.2 L545.8 167.1 L555.8 173.8 L564.9 181.2 L573.6 187.9 L583.0 192.6 L594.2 194.9 L607.8 195.6 L623.1 196.5 L638.6 199.7 L651.7 206.9 L660.0 218.5 L661.8 233.5 L657.3 250.1 L648.7 266.0 L639.1 279.9 L632.2 291.3 L630.4 301.3Z"/>
<path d="M648.0 303.2 L654.8 315.2 L665.8 329.3 L677.3 346.1 L685.1 364.5 L686.4 382.3 L680.2 397.4 L667.5 408.1 L651.1 414.5 L633.9 417.7 L618.0 419.8 L604.6 422.9 L593.5 428.1 L583.5 435.4 L573.5 443.7 L562.7 451.5 L550.8 457.8 L538.1 462.0 L524.9 464.8 L511.2 466.7 L497.1 468.3 L482.5 469.2 L467.7 468.2 L453.5 464.0 L441.3 455.3 L432.3 442.1 L427.0 425.6 L424.9 408.2 L423.8 392.3 L421.1 379.5 L414.4 370.2 L402.4 363.2 L386.0 356.3 L367.9 347.4 L352.2 335.2 L342.7 320.0 L342.0 303.2 L350.0 287.2 L364.5 273.5 L381.7 263.0 L397.6 254.6 L409.0 246.5 L415.1 236.7 L416.9 223.9 L416.7 208.0 L417.5 190.5 L421.3 173.7 L429.1 159.7 L440.5 149.8 L454.2 144.2 L468.9 141.7 L483.5 141.2 L497.7 141.3 L511.4 142.0 L524.9 143.5 L537.9 146.6 L550.3 151.9 L561.7 158.8 L572.3 166.3 L582.8 172.8 L594.3 177.0 L607.8 178.9 L623.7 179.5 L641.2 181.0 L658.2 185.7 L671.8 195.2 L679.4 209.5 L679.7 227.4 L673.5 246.4 L663.5 264.2 L653.6 279.4 L647.6 292.0 L648.0 303.2Z"/>
<path d="M666.4 304.7 L676.3 318.5 L689.9 335.0 L702.7 354.4 L710.2 375.0 L709.7 394.5 L700.6 410.4 L684.7 421.2 L665.3 427.3 L645.8 430.3 L628.6 432.8 L614.4 437.0 L602.8 444.0 L592.3 453.4 L581.4 463.8 L569.3 473.4 L555.8 480.9 L541.3 485.8 L526.2 488.8 L510.7 490.7 L494.8 491.9 L478.4 492.0 L462.1 489.8 L446.7 483.8 L433.7 473.0 L424.3 457.5 L418.8 439.1 L416.2 420.3 L414.0 403.6 L409.3 390.7 L399.7 381.4 L384.5 374.1 L365.1 366.3 L345.0 355.7 L328.9 341.3 L320.6 323.6 L322.4 304.7 L333.6 287.0 L351.1 272.3 L370.4 260.9 L387.0 251.5 L397.9 241.9 L402.6 229.8 L402.9 214.0 L401.8 195.1 L402.6 174.9 L407.5 156.1 L417.1 141.1 L430.8 131.2 L446.9 126.1 L463.7 124.4 L480.3 124.5 L496.1 125.2 L511.4 126.0 L526.2 127.6 L540.7 130.9 L554.5 136.2 L567.5 143.1 L579.7 150.4 L592.1 156.5 L605.7 160.2 L621.7 161.6 L640.0 162.4 L659.4 164.9 L677.5 171.5 L691.1 183.5 L697.6 200.8 L696.3 221.5 L688.4 242.8 L677.3 262.2 L667.6 278.5 L663.3 292.1 L666.4 304.7Z"/>
<path d="M685.7 305.1 L698.8 320.9 L714.9 339.9 L728.5 361.8 L735.2 384.6 L732.1 405.5 L719.7 421.8 L700.3 432.5 L678.1 438.1 L656.6 441.0 L638.3 444.2 L623.8 450.0 L611.9 459.2 L600.9 471.1 L589.1 483.8 L575.7 495.1 L560.5 503.7 L544.2 509.2 L527.2 512.2 L509.8 513.7 L492.1 514.3 L474.0 513.4 L456.3 509.7 L439.9 501.8 L426.2 488.8 L416.4 471.2 L410.5 451.1 L407.1 431.3 L403.3 414.3 L396.2 401.4 L383.5 392.3 L364.9 384.6 L342.7 375.6 L321.2 363.1 L305.2 346.2 L298.8 326.1 L303.7 305.1 L318.3 286.0 L338.7 270.2 L359.6 258.0 L376.2 247.4 L385.9 236.0 L388.8 221.3 L387.4 202.4 L385.4 180.3 L386.5 157.4 L392.8 137.0 L404.6 121.4 L420.9 111.8 L439.4 107.6 L458.4 106.9 L476.8 107.7 L494.2 108.7 L510.9 109.6 L527.2 111.1 L543.1 114.2 L558.4 119.3 L572.9 126.0 L586.9 132.8 L601.3 138.3 L617.2 141.4 L635.5 142.6 L656.1 143.8 L677.2 147.6 L695.9 156.5 L709.1 171.4 L714.3 191.7 L711.1 215.1 L701.7 238.4 L690.1 259.3 L681.4 276.6 L679.3 291.2 L685.7 305.1Z"/>
<path d="M832.8 130.0 L832.4 130.9 L832.2 131.8 L832.1 132.8 L832.2 133.8 L832.1 134.8 L831.8 135.8 L831.2 136.7 L830.5 137.5 L829.6 138.1 L828.7 138.8 L827.8 139.5 L827.0 140.3 L826.2 141.2 L825.2 142.1 L824.1 142.9 L822.8 143.3 L821.4 143.4 L820.0 143.1 L818.7 142.6 L817.5 141.9 L816.5 141.2 L815.4 140.6 L814.4 140.2 L813.3 139.8 L812.3 139.4 L811.3 138.8 L810.5 138.1 L809.9 137.2 L809.5 136.3 L809.1 135.4 L808.7 134.5 L808.1 133.7 L807.3 132.9 L806.3 132.0 L805.4 131.1 L804.8 130.0 L804.5 128.8 L804.6 127.7 L805.1 126.6 L805.9 125.6 L806.7 124.7 L807.5 123.9 L808.3 123.0 L809.0 122.2 L809.8 121.3 L810.7 120.6 L811.8 120.0 L813.0 119.7 L814.3 119.7 L815.6 119.8 L816.8 119.9 L817.9 119.9 L818.9 119.7 L820.0 119.3 L821.1 118.9 L822.4 118.4 L823.7 118.2 L825.0 118.3 L826.2 118.6 L827.3 119.2 L828.3 119.9 L829.3 120.6 L830.3 121.3 L831.3 121.9 L832.4 122.6 L833.3 123.5 L834.0 124.4 L834.4 125.6 L834.3 126.7 L833.9 127.9 L833.3 129.0 L832.8 130.0Z"/>
<path d="M846.3 129.5 L845.7 131.4 L845.5 133.4 L845.6 135.4 L845.7 137.6 L845.6 139.8 L845.0 142.0 L843.7 143.9 L842.1 145.6 L840.2 147.1 L838.3 148.6 L836.5 150.2 L834.7 152.0 L832.9 153.9 L830.7 155.8 L828.2 157.3 L825.4 158.1 L822.4 158.0 L819.5 157.3 L816.7 156.0 L814.3 154.5 L812.0 153.1 L809.8 152.0 L807.6 151.1 L805.3 150.4 L803.0 149.5 L800.9 148.3 L799.2 146.7 L797.9 144.9 L796.9 142.9 L796.0 141.0 L794.9 139.2 L793.4 137.5 L791.6 135.8 L789.5 134.0 L787.7 131.8 L786.3 129.5 L785.9 127.0 L786.4 124.5 L787.6 122.2 L789.4 120.2 L791.2 118.3 L793.0 116.5 L794.6 114.7 L796.1 112.8 L797.8 111.0 L799.7 109.5 L802.1 108.4 L804.7 107.8 L807.5 107.7 L810.2 107.9 L812.7 108.0 L815.0 107.8 L817.2 107.2 L819.5 106.3 L822.0 105.1 L824.7 104.2 L827.6 103.8 L830.4 104.0 L833.0 104.9 L835.3 106.2 L837.4 107.7 L839.5 109.2 L841.6 110.7 L843.8 112.1 L846.0 113.7 L847.9 115.5 L849.3 117.7 L849.8 120.1 L849.6 122.6 L848.6 125.1 L847.4 127.4 L846.3 129.5Z"/>
<path d="M859.9 128.8 L859.2 131.8 L859.2 134.8 L859.7 138.0 L860.1 141.4 L859.9 144.9 L858.9 148.2 L856.9 151.2 L854.3 153.8 L851.4 156.1 L848.6 158.4 L845.8 161.0 L843.1 163.8 L840.2 166.8 L836.7 169.5 L832.8 171.5 L828.4 172.4 L823.8 172.1 L819.3 170.7 L815.2 168.6 L811.5 166.3 L808.1 164.3 L804.8 162.8 L801.3 161.7 L797.7 160.6 L794.2 159.3 L790.9 157.6 L788.3 155.2 L786.2 152.4 L784.6 149.5 L783.0 146.6 L781.2 143.9 L778.7 141.4 L775.7 138.7 L772.5 135.8 L769.7 132.5 L767.9 128.8 L767.6 125.0 L768.6 121.2 L770.8 117.7 L773.6 114.7 L776.5 111.8 L779.2 109.1 L781.6 106.3 L783.9 103.5 L786.4 100.8 L789.4 98.5 L793.1 96.9 L797.1 96.1 L801.3 95.9 L805.3 96.0 L809.0 96.0 L812.4 95.4 L815.8 94.2 L819.3 92.5 L823.2 90.7 L827.5 89.3 L831.9 88.8 L836.2 89.3 L840.2 90.8 L843.7 92.9 L846.9 95.3 L850.1 97.7 L853.3 99.9 L856.7 102.1 L860.0 104.6 L862.7 107.5 L864.5 110.9 L865.1 114.6 L864.5 118.5 L863.1 122.2 L861.3 125.7 L859.9 128.8Z"/>
<path d="M873.8 128.4 L873.2 132.4 L873.7 136.5 L874.6 140.9 L875.3 145.6 L875.1 150.3 L873.6 154.8 L870.9 158.9 L867.3 162.4 L863.4 165.6 L859.6 168.8 L855.9 172.3 L852.1 176.2 L848.0 180.1 L843.3 183.6 L837.8 186.0 L831.8 186.8 L825.6 186.0 L819.7 183.8 L814.3 180.9 L809.4 178.0 L804.8 175.5 L800.3 173.7 L795.5 172.4 L790.6 171.2 L785.8 169.5 L781.4 167.1 L777.8 164.0 L775.0 160.3 L772.6 156.4 L770.3 152.6 L767.4 149.1 L763.8 145.7 L759.5 142.1 L755.3 138.0 L751.7 133.4 L749.8 128.4 L749.7 123.2 L751.6 118.2 L754.8 113.6 L758.8 109.5 L762.7 105.8 L766.2 102.1 L769.3 98.4 L772.3 94.6 L775.7 91.1 L779.9 88.1 L784.7 86.0 L790.1 84.9 L795.6 84.6 L800.9 84.5 L805.7 84.1 L810.3 83.0 L814.8 81.0 L819.7 78.4 L825.1 75.9 L830.9 74.2 L836.9 73.7 L842.7 74.6 L847.9 76.9 L852.6 79.9 L856.9 83.2 L861.1 86.4 L865.5 89.4 L870.0 92.5 L874.2 95.9 L877.7 99.9 L879.8 104.6 L880.3 109.6 L879.3 114.8 L877.4 119.7 L875.3 124.3 L873.8 128.4Z"/>
<path d="M888.0 128.6 L888.0 133.6 L889.1 138.9 L890.6 144.6 L891.5 150.6 L891.2 156.6 L889.2 162.3 L885.6 167.4 L881.1 171.8 L876.1 175.9 L871.3 180.0 L866.6 184.5 L861.8 189.4 L856.5 194.2 L850.3 198.2 L843.3 200.8 L835.6 201.4 L827.9 200.0 L820.5 197.0 L813.9 193.3 L807.8 189.7 L802.1 187.0 L796.4 185.1 L790.3 183.7 L784.0 182.4 L777.9 180.4 L772.3 177.4 L767.7 173.5 L764.1 168.9 L760.9 164.1 L757.6 159.5 L753.7 155.1 L748.8 150.8 L743.3 146.2 L738.0 141.0 L734.0 135.1 L732.0 128.6 L732.6 122.1 L735.4 115.9 L739.9 110.3 L744.9 105.3 L749.8 100.6 L754.1 96.0 L757.8 91.3 L761.6 86.6 L765.8 82.1 L771.0 78.5 L777.1 75.9 L783.8 74.6 L790.6 74.0 L797.0 73.6 L802.9 72.7 L808.5 70.8 L814.3 67.9 L820.5 64.4 L827.5 61.2 L834.9 59.2 L842.5 58.9 L849.7 60.5 L856.2 63.6 L862.0 67.6 L867.3 71.8 L872.6 75.9 L878.1 79.7 L883.6 83.7 L888.7 88.1 L892.7 93.2 L895.1 99.1 L895.4 105.5 L894.0 111.9 L891.6 118.0 L889.4 123.5 L888.0 128.6Z"/>
<path d="M902.8 129.7 L903.5 135.8 L905.4 142.2 L907.5 149.2 L908.8 156.6 L908.2 163.9 L905.6 170.8 L901.1 176.9 L895.4 182.2 L889.4 187.2 L883.5 192.2 L877.8 197.7 L871.9 203.5 L865.4 209.1 L857.7 213.6 L849.0 216.1 L839.8 216.3 L830.5 214.1 L821.8 210.3 L813.9 205.9 L806.8 202.0 L799.9 199.0 L792.9 197.2 L785.4 196.0 L777.7 194.6 L770.2 192.3 L763.5 188.7 L757.9 184.0 L753.4 178.5 L749.3 172.8 L745.0 167.4 L739.8 162.2 L733.6 157.0 L726.9 151.3 L720.8 144.8 L716.4 137.5 L714.8 129.7 L716.2 121.8 L720.2 114.5 L725.9 107.8 L732.1 101.9 L737.9 96.4 L742.8 90.9 L747.1 85.2 L751.4 79.5 L756.5 74.2 L762.7 69.8 L770.0 66.8 L777.9 65.1 L785.9 64.3 L793.4 63.4 L800.4 61.8 L807.1 58.9 L814.1 54.9 L821.8 50.5 L830.3 46.7 L839.4 44.6 L848.6 44.7 L857.2 47.1 L864.9 51.2 L871.7 56.2 L878.0 61.4 L884.3 66.3 L890.8 71.0 L897.4 75.8 L903.3 81.2 L907.8 87.5 L910.2 94.6 L910.3 102.3 L908.5 109.9 L905.9 117.1 L903.7 123.6 L902.8 129.7Z"/>
<path d="M918.1 131.4 L919.7 138.6 L922.6 146.3 L925.4 154.6 L926.9 163.4 L926.0 172.1 L922.5 180.1 L917.0 187.1 L910.2 193.3 L903.1 199.2 L896.2 205.2 L889.4 211.6 L882.4 218.3 L874.4 224.5 L865.2 229.3 L854.9 231.6 L844.0 231.2 L833.3 228.2 L823.3 223.6 L814.3 218.7 L806.1 214.5 L798.0 211.7 L789.6 210.1 L780.7 209.1 L771.5 207.7 L762.6 205.1 L754.7 200.9 L748.1 195.3 L742.6 188.9 L737.6 182.4 L732.1 176.1 L725.7 170.1 L718.2 163.9 L710.4 157.1 L703.6 149.3 L699.2 140.6 L698.1 131.4 L700.6 122.3 L705.9 113.8 L712.9 106.2 L720.1 99.5 L726.6 93.0 L732.0 86.6 L736.8 79.9 L741.7 73.1 L747.5 67.0 L754.8 61.9 L763.2 58.4 L772.4 56.4 L781.5 55.1 L790.0 53.6 L798.0 51.0 L805.8 47.0 L814.1 41.9 L823.3 36.6 L833.5 32.4 L844.3 30.3 L855.0 31.0 L864.9 34.4 L873.7 39.6 L881.5 45.7 L888.8 51.9 L896.1 57.6 L903.7 63.1 L911.1 68.7 L917.8 75.2 L922.7 82.6 L925.1 91.1 L924.9 100.0 L922.9 108.7 L920.3 116.9 L918.3 124.3 L918.1 131.4Z"/>
<path d="M933.9 133.3 L936.7 141.6 L940.6 150.6 L944.1 160.4 L945.6 170.6 L944.2 180.6 L939.8 189.7 L933.1 197.7 L925.1 204.7 L916.9 211.4 L908.9 218.4 L901.1 225.7 L892.8 233.2 L883.4 239.9 L872.6 244.8 L860.7 246.8 L848.2 245.7 L836.1 241.9 L824.9 236.6 L814.8 231.3 L805.4 227.1 L796.1 224.5 L786.3 223.4 L775.8 222.7 L765.1 221.3 L754.8 218.3 L745.7 213.5 L738.1 207.1 L731.6 199.8 L725.5 192.4 L718.9 185.3 L711.1 178.4 L702.4 171.2 L693.6 163.2 L686.4 154.0 L682.1 143.9 L681.9 133.3 L685.7 122.9 L692.4 113.4 L700.7 105.0 L708.8 97.4 L715.8 90.0 L721.6 82.6 L726.7 74.8 L732.0 67.0 L738.7 60.0 L746.9 54.3 L756.5 50.3 L766.8 47.7 L776.9 45.8 L786.5 43.5 L795.5 39.9 L804.5 34.7 L814.1 28.5 L824.9 22.4 L836.8 17.9 L849.2 16.1 L861.3 17.6 L872.5 22.1 L882.3 28.6 L891.1 35.8 L899.4 42.9 L907.7 49.4 L916.3 55.6 L924.6 62.1 L931.9 69.6 L937.1 78.2 L939.5 87.9 L939.2 97.9 L937.0 107.7 L934.5 116.8 L933.2 125.2 L933.9 133.3Z"/>
<path d="M379.8 430.0 L380.0 431.9 L379.8 433.8 L379.3 435.7 L378.5 437.4 L377.5 439.0 L376.4 440.4 L375.3 441.8 L374.1 443.1 L373.0 444.3 L371.8 445.4 L370.5 446.5 L369.1 447.3 L367.6 447.9 L366.0 448.2 L364.4 448.2 L362.9 448.0 L361.4 447.7 L360.0 447.3 L358.7 446.9 L357.3 446.8 L355.9 446.8 L354.4 447.0 L352.7 447.2 L350.9 447.4 L348.9 447.4 L347.0 447.0 L345.2 446.3 L343.7 445.0 L342.6 443.4 L341.9 441.5 L341.6 439.4 L341.7 437.3 L342.1 435.3 L342.7 433.4 L343.3 431.6 L343.8 430.0 L344.1 428.5 L344.4 427.0 L344.5 425.4 L344.6 423.9 L344.9 422.2 L345.2 420.6 L345.8 419.1 L346.6 417.6 L347.5 416.3 L348.6 415.1 L349.8 414.0 L351.1 413.0 L352.4 412.0 L353.7 411.0 L355.1 410.0 L356.6 409.0 L358.3 408.2 L360.0 407.7 L361.8 407.5 L363.6 407.8 L365.2 408.5 L366.7 409.7 L367.9 411.3 L368.9 413.1 L369.6 414.9 L370.2 416.7 L370.7 418.3 L371.3 419.6 L372.0 420.7 L373.0 421.7 L374.2 422.7 L375.6 423.8 L376.9 425.0 L378.2 426.5 L379.1 428.2 L379.8 430.0Z"/>
<path d="M400.9 430.4 L401.1 434.3 L400.5 438.2 L399.2 441.8 L397.5 445.2 L395.4 448.2 L393.2 451.1 L390.9 453.7 L388.6 456.2 L386.3 458.7 L383.9 460.9 L381.3 462.9 L378.6 464.6 L375.6 465.7 L372.5 466.3 L369.4 466.4 L366.4 466.1 L363.5 465.5 L360.7 464.9 L357.9 464.6 L355.2 464.5 L352.3 464.7 L349.1 465.3 L345.7 465.8 L341.9 466.2 L338.0 466.0 L334.2 465.1 L330.8 463.3 L328.0 460.6 L325.9 457.2 L324.8 453.2 L324.5 449.0 L325.0 444.7 L325.9 440.7 L327.0 437.0 L328.1 433.6 L328.9 430.4 L329.4 427.4 L329.6 424.4 L329.7 421.3 L329.8 418.1 L330.1 414.8 L330.8 411.5 L331.9 408.3 L333.5 405.3 L335.4 402.6 L337.6 400.2 L340.0 398.0 L342.6 396.0 L345.2 393.9 L347.9 391.9 L350.8 389.9 L353.9 388.1 L357.2 386.6 L360.7 385.7 L364.2 385.7 L367.7 386.5 L370.9 388.2 L373.8 390.8 L376.1 394.0 L377.9 397.6 L379.3 401.1 L380.5 404.4 L381.7 407.3 L383.1 409.7 L384.9 411.7 L387.2 413.6 L389.8 415.5 L392.6 417.6 L395.4 420.2 L397.9 423.2 L399.8 426.7 L400.9 430.4Z"/>
<path d="M422.1 431.2 L422.1 437.0 L420.9 442.8 L418.7 448.2 L415.8 453.1 L412.5 457.6 L409.1 461.7 L405.8 465.6 L402.4 469.4 L399.0 472.9 L395.4 476.3 L391.6 479.2 L387.5 481.7 L383.1 483.4 L378.6 484.3 L374.0 484.6 L369.5 484.2 L365.2 483.7 L361.0 483.2 L356.9 483.0 L352.7 483.2 L348.2 483.9 L343.2 484.9 L337.9 485.7 L332.2 486.1 L326.3 485.6 L320.8 483.9 L315.9 480.8 L312.0 476.4 L309.4 470.9 L308.1 464.8 L308.0 458.4 L308.9 452.0 L310.3 446.1 L311.9 440.7 L313.2 435.8 L314.1 431.2 L314.5 426.7 L314.6 422.1 L314.4 417.4 L314.3 412.5 L314.7 407.4 L315.6 402.3 L317.3 397.5 L319.7 393.0 L322.6 388.9 L326.0 385.3 L329.7 381.9 L333.5 378.8 L337.5 375.7 L341.7 372.7 L346.1 369.8 L350.8 367.3 L355.8 365.3 L361.0 364.4 L366.3 364.6 L371.4 366.2 L376.1 369.2 L380.2 373.2 L383.5 378.1 L386.2 383.2 L388.3 388.3 L390.2 392.9 L392.3 396.8 L394.7 400.0 L397.8 402.8 L401.6 405.4 L405.9 408.1 L410.3 411.4 L414.6 415.4 L418.2 420.1 L420.8 425.4 L422.1 431.2Z"/>
<path d="M443.2 431.8 L442.7 439.6 L440.6 447.2 L437.3 454.3 L433.2 460.7 L428.7 466.6 L424.2 471.9 L419.7 477.0 L415.3 482.0 L410.8 486.7 L406.2 491.1 L401.2 495.1 L395.8 498.3 L390.1 500.6 L384.1 502.0 L378.1 502.4 L372.2 502.3 L366.5 501.9 L360.9 501.7 L355.3 501.9 L349.5 502.6 L343.3 503.9 L336.5 505.3 L329.2 506.4 L321.6 506.7 L313.9 505.6 L306.7 502.8 L300.6 498.1 L295.9 491.8 L292.9 484.1 L291.7 475.7 L291.9 467.1 L293.3 458.8 L295.2 451.1 L297.1 444.1 L298.5 437.8 L299.2 431.8 L299.3 425.8 L298.8 419.7 L298.2 413.3 L297.9 406.5 L298.2 399.6 L299.5 392.7 L301.7 386.2 L305.0 380.1 L309.0 374.7 L313.6 369.8 L318.6 365.3 L323.8 361.1 L329.2 357.1 L334.9 353.1 L340.8 349.4 L347.2 346.3 L353.9 344.1 L360.9 343.3 L367.9 344.1 L374.5 346.7 L380.6 350.9 L385.8 356.5 L390.1 362.9 L393.6 369.5 L396.5 375.8 L399.3 381.4 L402.4 386.1 L406.2 389.9 L410.9 393.3 L416.4 396.5 L422.4 400.2 L428.6 404.7 L434.3 410.1 L438.9 416.6 L441.9 424.0 L443.2 431.8Z"/>
<path d="M463.9 431.8 L462.6 441.7 L459.5 451.0 L454.9 459.7 L449.5 467.5 L443.8 474.6 L438.1 481.2 L432.6 487.5 L427.2 493.6 L421.8 499.6 L416.2 505.1 L410.1 510.1 L403.5 514.1 L396.4 517.1 L389.1 519.0 L381.7 519.8 L374.4 520.0 L367.3 520.0 L360.3 520.3 L353.2 521.0 L345.7 522.5 L337.7 524.3 L329.0 526.2 L319.7 527.4 L310.1 527.3 L300.7 525.3 L292.1 521.1 L285.0 514.6 L279.7 506.1 L276.7 496.2 L275.6 485.5 L276.3 474.8 L278.2 464.7 L280.4 455.3 L282.4 446.9 L283.6 439.2 L283.9 431.8 L283.3 424.4 L282.2 416.7 L281.0 408.4 L280.3 399.8 L280.6 391.0 L282.2 382.2 L285.2 374.0 L289.4 366.4 L294.6 359.6 L300.5 353.5 L306.8 347.9 L313.5 342.7 L320.3 337.7 L327.5 332.9 L335.1 328.6 L343.1 325.0 L351.6 322.8 L360.3 322.3 L368.8 323.8 L377.0 327.5 L384.3 333.1 L390.6 340.1 L395.8 348.0 L400.1 355.8 L404.0 363.1 L407.8 369.4 L412.3 374.6 L417.6 378.8 L424.1 382.6 L431.5 386.5 L439.5 391.2 L447.3 396.9 L454.3 404.1 L459.6 412.5 L462.9 421.9 L463.9 431.8Z"/>
<path d="M483.9 431.0 L481.6 442.8 L477.2 453.9 L471.2 464.1 L464.5 473.2 L457.6 481.5 L450.9 489.3 L444.5 496.8 L438.4 504.2 L432.1 511.3 L425.5 518.1 L418.4 524.1 L410.6 529.1 L402.3 532.8 L393.6 535.2 L384.8 536.6 L376.2 537.3 L367.6 537.9 L359.1 538.8 L350.4 540.3 L341.3 542.4 L331.4 544.9 L320.7 547.0 L309.5 548.2 L298.0 547.5 L287.0 544.3 L277.2 538.4 L269.3 529.8 L263.8 519.0 L260.8 506.8 L260.1 493.9 L261.3 481.2 L263.5 469.3 L265.9 458.5 L267.7 448.8 L268.4 439.8 L267.9 431.0 L266.5 422.1 L264.4 412.7 L262.6 402.6 L261.5 391.9 L261.8 381.1 L263.9 370.5 L267.6 360.5 L272.9 351.4 L279.4 343.3 L286.7 336.1 L294.5 329.5 L302.6 323.3 L311.0 317.5 L319.7 312.0 L328.9 307.1 L338.6 303.3 L348.8 301.2 L359.1 301.2 L369.3 303.6 L378.8 308.4 L387.3 315.4 L394.6 323.8 L400.7 332.8 L406.0 341.7 L410.9 349.7 L416.1 356.4 L422.0 361.8 L429.2 366.3 L437.7 370.5 L447.2 375.1 L457.1 380.8 L466.5 388.0 L474.5 397.0 L480.4 407.5 L483.6 419.0 L483.9 431.0Z"/>
<path d="M503.2 429.5 L499.6 443.1 L493.7 455.9 L486.3 467.4 L478.3 477.8 L470.3 487.3 L462.8 496.3 L455.7 505.0 L448.8 513.6 L441.8 522.1 L434.4 530.1 L426.2 537.3 L417.3 543.3 L407.8 547.8 L397.8 551.0 L387.7 553.0 L377.6 554.3 L367.6 555.6 L357.6 557.3 L347.3 559.6 L336.3 562.5 L324.5 565.5 L311.8 567.8 L298.6 568.6 L285.4 567.0 L273.0 562.3 L262.2 554.5 L253.8 543.6 L248.2 530.4 L245.5 515.8 L245.3 500.8 L246.9 486.3 L249.3 472.8 L251.5 460.7 L252.9 449.8 L252.8 439.5 L251.2 429.5 L248.6 419.0 L245.5 407.7 L242.9 395.6 L241.5 383.0 L242.0 370.1 L244.5 357.7 L249.2 346.0 L255.7 335.4 L263.6 326.1 L272.4 317.7 L281.7 310.2 L291.3 303.2 L301.3 296.6 L311.6 290.5 L322.5 285.2 L333.9 281.3 L345.7 279.5 L357.6 280.1 L369.2 283.5 L380.0 289.5 L389.7 297.7 L398.0 307.3 L405.1 317.4 L411.4 326.9 L417.6 335.3 L424.2 342.1 L432.0 347.6 L441.3 352.2 L451.9 356.8 L463.5 362.2 L475.3 369.1 L486.1 378.0 L495.0 389.0 L501.0 401.6 L503.8 415.4 L503.2 429.5Z"/>
<path d="M925.6 380.0 L924.7 381.0 L923.9 382.0 L923.2 382.8 L922.7 383.7 L922.3 384.6 L922.0 385.5 L921.5 386.4 L920.9 387.3 L920.1 388.1 L919.1 388.7 L918.1 389.2 L917.0 389.7 L915.9 390.1 L914.8 390.6 L913.8 391.3 L912.6 392.0 L911.4 392.7 L910.0 393.3 L908.5 393.7 L907.0 393.8 L905.5 393.5 L904.2 392.8 L903.1 391.9 L902.2 390.8 L901.5 389.7 L900.9 388.6 L900.3 387.7 L899.6 387.0 L898.9 386.2 L898.0 385.5 L897.3 384.7 L896.6 383.9 L896.2 383.0 L896.0 382.0 L896.0 381.0 L896.0 380.0 L896.1 379.0 L896.1 378.0 L895.9 377.0 L895.7 375.8 L895.5 374.6 L895.6 373.3 L895.9 372.1 L896.6 371.0 L897.7 370.1 L899.0 369.5 L900.6 369.3 L902.2 369.2 L903.8 369.3 L905.2 369.4 L906.5 369.4 L907.7 369.3 L908.8 369.2 L910.0 369.0 L911.2 368.8 L912.5 368.8 L913.7 369.0 L914.9 369.3 L915.9 369.8 L917.0 370.3 L918.0 370.9 L919.1 371.3 L920.3 371.8 L921.7 372.2 L923.1 372.7 L924.4 373.3 L925.6 374.2 L926.5 375.2 L926.9 376.4 L926.8 377.6 L926.3 378.9 L925.6 380.0Z"/>
<path d="M941.6 380.0 L939.8 382.1 L938.2 384.1 L936.9 385.9 L936.0 387.8 L935.4 389.8 L934.7 391.8 L933.8 393.8 L932.6 395.7 L930.9 397.3 L928.8 398.7 L926.6 399.8 L924.3 400.9 L922.0 401.9 L919.7 403.1 L917.4 404.6 L915.0 406.1 L912.2 407.6 L909.2 408.9 L906.0 409.5 L902.7 409.5 L899.7 408.6 L897.0 406.9 L894.8 404.8 L893.0 402.4 L891.6 400.1 L890.3 398.0 L888.9 396.2 L887.4 394.7 L885.6 393.2 L883.7 391.8 L882.0 390.2 L880.6 388.3 L879.6 386.3 L879.2 384.2 L879.1 382.1 L879.1 380.0 L879.1 377.9 L878.9 375.7 L878.5 373.4 L878.1 370.9 L877.8 368.3 L878.0 365.6 L878.9 363.0 L880.6 360.8 L883.1 359.1 L886.2 358.1 L889.6 357.6 L893.0 357.6 L896.2 357.7 L899.2 357.9 L901.8 357.9 L904.3 357.5 L906.7 357.0 L909.2 356.5 L911.8 356.1 L914.5 356.0 L917.1 356.3 L919.7 357.1 L922.0 358.1 L924.3 359.1 L926.6 360.2 L929.0 361.2 L931.7 362.0 L934.6 363.0 L937.6 364.1 L940.5 365.6 L942.8 367.5 L944.3 369.8 L944.9 372.4 L944.5 375.0 L943.3 377.6 L941.6 380.0Z"/>
<path d="M956.7 379.4 L954.1 382.6 L951.8 385.6 L950.2 388.4 L949.1 391.3 L948.3 394.3 L947.5 397.5 L946.3 400.6 L944.4 403.6 L941.8 406.2 L938.7 408.3 L935.3 410.1 L931.8 411.8 L928.3 413.5 L924.8 415.5 L921.3 417.8 L917.4 420.2 L913.1 422.4 L908.4 424.1 L903.4 424.8 L898.5 424.3 L893.9 422.6 L890.0 419.9 L886.8 416.5 L884.2 412.9 L882.1 409.5 L880.1 406.4 L877.8 403.9 L875.2 401.7 L872.3 399.7 L869.3 397.5 L866.5 395.1 L864.3 392.3 L862.8 389.2 L862.0 386.0 L861.7 382.7 L861.7 379.4 L861.5 376.2 L861.1 372.8 L860.5 369.2 L859.8 365.3 L859.5 361.2 L860.1 357.1 L861.8 353.3 L864.8 350.1 L868.9 347.8 L873.8 346.4 L879.1 345.9 L884.2 346.0 L889.0 346.2 L893.3 346.3 L897.2 346.0 L900.9 345.3 L904.6 344.3 L908.4 343.3 L912.4 342.6 L916.6 342.4 L920.6 342.9 L924.5 344.0 L928.2 345.5 L931.8 347.1 L935.4 348.6 L939.3 350.0 L943.5 351.4 L948.0 352.8 L952.6 354.7 L956.7 357.1 L960.0 360.2 L962.0 363.8 L962.4 367.9 L961.4 372.0 L959.4 375.9 L956.7 379.4Z"/>
<path d="M971.1 378.5 L967.8 382.7 L965.1 386.6 L963.4 390.4 L962.3 394.4 L961.6 398.6 L960.7 403.0 L959.2 407.3 L956.6 411.3 L953.2 414.8 L949.0 417.8 L944.4 420.3 L939.7 422.7 L935.0 425.2 L930.3 428.0 L925.4 431.1 L920.1 434.3 L914.2 437.1 L907.8 439.0 L901.1 439.6 L894.6 438.5 L888.6 435.8 L883.5 431.9 L879.4 427.2 L876.1 422.4 L873.2 418.0 L870.4 414.2 L867.1 411.0 L863.3 408.4 L859.1 405.8 L854.8 403.0 L850.9 399.7 L847.8 395.9 L845.8 391.8 L844.6 387.4 L844.2 382.9 L844.0 378.5 L843.6 374.0 L842.9 369.3 L842.0 364.4 L841.2 359.1 L841.1 353.6 L842.2 348.2 L845.0 343.3 L849.5 339.3 L855.3 336.5 L862.2 335.0 L869.3 334.5 L876.1 334.6 L882.3 334.8 L887.9 334.7 L892.9 334.0 L897.7 332.8 L902.6 331.1 L907.8 329.6 L913.2 328.5 L918.9 328.2 L924.4 328.9 L929.7 330.3 L934.8 332.2 L939.7 334.3 L944.7 336.3 L950.1 338.1 L955.9 340.0 L962.1 342.1 L968.0 344.7 L973.3 348.2 L977.2 352.6 L979.3 357.7 L979.4 363.1 L977.7 368.6 L974.7 373.8 L971.1 378.5Z"/>
<path d="M985.1 377.6 L981.3 382.8 L978.5 387.6 L976.8 392.5 L976.1 397.6 L975.6 403.0 L974.7 408.6 L972.8 414.2 L969.6 419.3 L965.2 423.8 L959.9 427.6 L954.2 430.9 L948.2 434.0 L942.3 437.3 L936.3 440.9 L930.1 444.9 L923.2 448.8 L915.7 452.0 L907.5 454.0 L899.2 454.1 L891.1 452.2 L883.8 448.4 L877.7 443.1 L872.8 437.2 L868.7 431.4 L865.1 426.1 L861.2 421.7 L856.8 418.2 L851.6 415.1 L846.0 412.1 L840.3 408.6 L835.3 404.6 L831.3 399.8 L828.7 394.5 L827.2 388.9 L826.6 383.3 L826.1 377.6 L825.5 371.9 L824.6 365.9 L823.4 359.6 L822.6 352.9 L822.9 346.0 L824.9 339.4 L828.9 333.6 L835.0 328.9 L842.8 325.8 L851.5 324.2 L860.4 323.7 L868.7 323.9 L876.3 323.9 L882.9 323.5 L889.0 322.2 L894.9 320.1 L901.0 317.7 L907.5 315.5 L914.5 314.1 L921.6 313.7 L928.7 314.5 L935.4 316.3 L941.9 318.7 L948.2 321.2 L954.7 323.7 L961.7 326.0 L969.1 328.3 L976.7 331.2 L984.0 334.8 L990.2 339.4 L994.5 345.2 L996.5 351.7 L996.0 358.7 L993.4 365.5 L989.4 371.9 L985.1 377.6Z"/>
<path d="M998.9 377.3 L994.8 383.3 L992.2 389.2 L991.0 395.1 L990.7 401.4 L990.6 408.1 L989.7 415.1 L987.5 421.9 L983.6 428.1 L978.2 433.6 L971.7 438.2 L964.7 442.3 L957.5 446.2 L950.4 450.3 L943.1 454.8 L935.3 459.5 L926.9 463.9 L917.7 467.4 L907.8 469.2 L897.8 468.7 L888.3 465.8 L879.9 460.7 L872.8 454.2 L867.1 447.1 L862.3 440.4 L857.7 434.5 L852.7 429.8 L846.9 426.0 L840.2 422.6 L833.0 419.2 L825.9 415.1 L819.7 410.1 L814.9 404.3 L811.7 397.9 L809.9 391.1 L809.0 384.2 L808.4 377.3 L807.5 370.2 L806.3 362.9 L805.0 355.2 L804.4 347.2 L805.3 339.0 L808.3 331.3 L813.8 324.6 L821.8 319.5 L831.5 316.2 L842.0 314.5 L852.5 314.1 L862.3 314.2 L870.9 313.9 L878.5 312.9 L885.5 310.7 L892.5 307.8 L899.8 304.5 L907.8 301.6 L916.3 299.8 L925.0 299.3 L933.6 300.4 L941.8 302.5 L949.7 305.4 L957.5 308.4 L965.6 311.3 L974.1 314.1 L983.0 317.1 L992.1 320.7 L1000.5 325.3 L1007.3 331.3 L1011.8 338.5 L1013.4 346.5 L1012.1 354.9 L1008.6 363.0 L1003.8 370.5 L998.9 377.3Z"/>
<path d="M1012.7 377.8 L1008.7 384.8 L1006.5 391.6 L1006.0 398.7 L1006.4 406.3 L1006.7 414.4 L1005.9 422.7 L1003.2 430.8 L998.5 438.1 L992.1 444.5 L984.4 450.0 L976.1 454.8 L967.6 459.5 L959.2 464.4 L950.5 469.7 L941.3 475.1 L931.2 480.0 L920.2 483.6 L908.7 484.9 L897.1 483.6 L886.3 479.5 L876.7 473.2 L868.8 465.4 L862.3 457.3 L856.7 449.9 L851.1 443.6 L844.8 438.7 L837.4 434.8 L829.0 431.3 L820.1 427.4 L811.5 422.7 L804.1 416.8 L798.5 409.9 L794.8 402.2 L792.7 394.2 L791.6 386.0 L790.8 377.8 L789.7 369.5 L788.3 360.8 L787.0 351.7 L786.8 342.3 L788.4 333.0 L792.7 324.3 L799.9 316.9 L809.8 311.4 L821.4 308.0 L833.8 306.4 L845.8 305.9 L856.7 305.8 L866.2 305.0 L874.7 303.1 L882.6 300.0 L890.6 295.9 L899.2 291.6 L908.7 288.0 L918.7 285.8 L929.0 285.4 L939.2 286.7 L948.9 289.3 L958.3 292.6 L967.6 296.1 L977.2 299.5 L987.2 302.9 L997.7 306.6 L1008.0 311.1 L1017.4 316.9 L1024.6 324.3 L1029.0 332.9 L1030.0 342.5 L1027.9 352.3 L1023.4 361.6 L1017.9 370.2 L1012.7 377.8Z"/>
<path d="M1026.6 379.4 L1023.1 387.3 L1021.7 395.1 L1022.1 403.4 L1023.3 412.3 L1024.1 421.9 L1023.2 431.6 L1020.1 441.0 L1014.5 449.4 L1006.8 456.7 L997.8 463.0 L988.2 468.6 L978.4 474.0 L968.6 479.7 L958.5 485.8 L947.8 491.8 L936.0 496.9 L923.3 500.3 L910.1 501.1 L897.0 498.8 L885.0 493.5 L874.4 485.8 L865.7 477.0 L858.4 468.0 L851.8 460.1 L845.0 453.7 L837.2 448.8 L828.1 445.0 L817.8 441.3 L807.1 437.1 L797.0 431.6 L788.4 424.8 L782.1 416.6 L778.0 407.7 L775.7 398.3 L774.5 388.9 L773.5 379.4 L772.2 369.7 L770.7 359.7 L769.6 349.3 L769.9 338.5 L772.5 328.0 L778.3 318.5 L787.3 310.6 L799.1 304.9 L812.7 301.4 L826.7 299.8 L840.0 299.2 L851.8 298.6 L862.2 297.1 L871.3 294.2 L880.1 289.7 L889.2 284.4 L899.1 279.1 L910.1 274.9 L921.8 272.4 L933.8 272.0 L945.5 273.7 L956.8 276.8 L967.6 280.7 L978.4 284.7 L989.5 288.6 L1001.1 292.6 L1013.0 297.1 L1024.4 302.6 L1034.5 309.7 L1041.9 318.5 L1045.9 328.7 L1046.2 339.7 L1043.2 350.8 L1038.0 361.3 L1031.9 370.8 L1026.6 379.4Z"/>
<path d="M71.9 360.0 L71.3 360.9 L70.9 361.8 L70.8 362.7 L70.9 363.8 L71.2 365.0 L71.4 366.3 L71.5 367.6 L71.2 368.9 L70.6 370.0 L69.6 370.8 L68.3 371.3 L66.9 371.4 L65.5 371.2 L64.2 370.9 L63.0 370.5 L61.9 370.4 L61.0 370.5 L60.0 370.8 L59.0 371.4 L57.8 372.0 L56.5 372.6 L55.1 372.9 L53.7 372.8 L52.5 372.3 L51.6 371.4 L50.9 370.3 L50.6 369.0 L50.4 367.6 L50.4 366.4 L50.3 365.3 L50.0 364.4 L49.4 363.6 L48.6 362.9 L47.7 362.1 L46.7 361.1 L45.9 360.0 L45.4 358.8 L45.3 357.5 L45.7 356.4 L46.5 355.3 L47.6 354.5 L48.9 353.9 L50.2 353.5 L51.3 353.0 L52.2 352.6 L52.9 351.9 L53.4 351.0 L53.9 350.0 L54.5 348.8 L55.3 347.6 L56.2 346.7 L57.4 346.1 L58.7 345.9 L60.0 346.1 L61.2 346.8 L62.3 347.7 L63.2 348.7 L64.0 349.6 L64.7 350.4 L65.5 350.9 L66.5 351.2 L67.6 351.3 L69.0 351.5 L70.4 351.7 L71.7 352.2 L72.8 353.0 L73.6 354.0 L73.9 355.2 L73.8 356.5 L73.3 357.8 L72.6 359.0 L71.9 360.0Z"/>
<path d="M85.3 359.5 L84.2 361.6 L83.7 363.6 L83.7 365.7 L84.3 368.1 L85.0 370.8 L85.5 373.8 L85.5 376.8 L84.7 379.6 L83.0 381.9 L80.6 383.5 L77.7 384.3 L74.5 384.3 L71.4 383.8 L68.5 383.2 L65.9 382.6 L63.7 382.6 L61.6 383.0 L59.4 384.1 L57.0 385.5 L54.3 387.0 L51.3 388.1 L48.3 388.6 L45.3 388.2 L42.8 386.9 L40.8 384.7 L39.6 382.0 L38.9 379.0 L38.6 376.1 L38.4 373.5 L38.0 371.3 L37.1 369.4 L35.6 367.8 L33.5 366.1 L31.3 364.2 L29.0 362.0 L27.3 359.5 L26.4 356.8 L26.5 354.0 L27.7 351.4 L29.8 349.3 L32.4 347.6 L35.3 346.3 L38.0 345.2 L40.2 344.2 L42.0 343.0 L43.3 341.3 L44.4 339.2 L45.5 336.6 L46.8 333.9 L48.6 331.4 L50.9 329.4 L53.6 328.3 L56.5 328.2 L59.4 329.0 L62.1 330.6 L64.4 332.7 L66.4 334.9 L68.1 336.8 L69.8 338.3 L71.8 339.2 L74.1 339.6 L76.8 339.8 L79.9 340.1 L83.0 340.7 L85.9 341.9 L88.2 343.7 L89.6 346.1 L90.1 348.9 L89.6 351.8 L88.4 354.7 L86.8 357.2 L85.3 359.5Z"/>
<path d="M98.7 358.8 L97.3 362.0 L97.0 365.1 L97.5 368.6 L98.6 372.5 L99.9 376.8 L100.6 381.5 L100.3 386.1 L98.7 390.3 L95.8 393.6 L91.8 395.7 L87.0 396.6 L82.1 396.4 L77.3 395.6 L73.0 394.7 L69.2 394.2 L65.8 394.5 L62.6 395.7 L59.2 397.7 L55.4 400.1 L51.1 402.4 L46.4 404.1 L41.7 404.5 L37.3 403.5 L33.6 401.0 L30.8 397.3 L29.0 392.9 L28.1 388.3 L27.7 384.0 L27.1 380.1 L26.1 376.9 L24.3 374.3 L21.6 371.8 L18.1 369.3 L14.4 366.3 L11.1 362.8 L8.7 358.8 L7.7 354.5 L8.3 350.3 L10.6 346.4 L14.1 343.2 L18.3 340.7 L22.6 338.8 L26.6 337.1 L29.8 335.4 L32.2 333.1 L33.9 330.2 L35.4 326.5 L37.1 322.4 L39.2 318.2 L42.2 314.4 L45.9 311.6 L50.2 310.3 L54.8 310.5 L59.2 312.2 L63.2 315.0 L66.7 318.2 L69.7 321.5 L72.5 324.1 L75.3 326.0 L78.6 326.9 L82.4 327.3 L86.9 327.4 L91.8 327.9 L96.6 329.0 L100.9 331.1 L104.1 334.2 L105.9 338.1 L106.1 342.6 L105.0 347.1 L103.1 351.5 L100.7 355.4 L98.7 358.8Z"/>
<path d="M112.1 358.3 L110.9 362.6 L111.1 367.0 L112.4 371.8 L114.2 377.3 L115.9 383.3 L116.7 389.7 L115.9 395.9 L113.3 401.2 L108.9 405.3 L103.1 407.7 L96.4 408.5 L89.7 408.1 L83.4 407.1 L77.8 406.1 L72.9 405.9 L68.5 406.9 L64.1 409.1 L59.5 412.3 L54.2 415.8 L48.2 418.8 L41.9 420.7 L35.5 420.8 L29.8 418.8 L25.1 414.9 L21.6 409.6 L19.5 403.5 L18.4 397.4 L17.6 391.7 L16.6 386.8 L14.7 382.9 L11.6 379.5 L7.4 376.3 L2.4 372.8 L-2.7 368.7 L-7.0 363.9 L-9.9 358.3 L-10.6 352.5 L-9.1 346.8 L-5.5 341.8 L-0.4 337.6 L5.4 334.4 L11.0 331.8 L16.0 329.4 L19.8 326.7 L22.6 323.3 L24.6 318.9 L26.5 313.6 L28.7 307.7 L31.8 302.0 L36.0 297.2 L41.3 294.0 L47.3 292.7 L53.5 293.6 L59.5 296.4 L64.8 300.3 L69.4 304.7 L73.4 308.7 L77.3 311.8 L81.3 313.8 L86.1 314.6 L91.6 314.7 L98.0 314.7 L104.6 315.4 L111.1 317.2 L116.5 320.4 L120.4 324.9 L122.2 330.5 L122.0 336.7 L120.2 342.9 L117.4 348.6 L114.5 353.8 L112.1 358.3Z"/>
<path d="M126.0 358.5 L125.3 363.9 L126.2 369.5 L128.4 375.8 L131.1 383.0 L133.2 390.8 L133.8 398.8 L132.2 406.4 L128.3 412.7 L122.1 417.2 L114.4 419.8 L105.9 420.4 L97.5 419.7 L89.7 418.6 L83.0 417.8 L77.1 418.3 L71.7 420.3 L66.2 423.7 L60.2 428.2 L53.4 432.8 L45.8 436.4 L37.7 438.3 L29.9 437.7 L22.9 434.5 L17.4 429.0 L13.5 421.9 L11.0 414.1 L9.6 406.5 L8.4 399.8 L6.6 394.1 L3.6 389.5 L-1.0 385.6 L-7.0 381.7 L-13.6 377.3 L-20.0 371.9 L-25.1 365.6 L-28.0 358.5 L-28.2 351.1 L-25.4 344.1 L-20.3 338.0 L-13.6 332.9 L-6.4 329.0 L0.4 325.7 L6.1 322.4 L10.3 318.7 L13.2 313.8 L15.4 307.7 L17.6 300.6 L20.5 293.0 L24.7 286.0 L30.3 280.4 L37.2 277.0 L45.0 276.2 L52.8 278.0 L60.2 281.9 L66.8 287.0 L72.5 292.3 L77.6 296.9 L82.6 300.2 L88.0 301.9 L94.4 302.3 L101.8 302.1 L110.0 302.1 L118.5 303.1 L126.4 305.7 L132.8 310.2 L136.9 316.4 L138.5 323.8 L137.7 331.7 L135.1 339.4 L131.6 346.5 L128.3 352.8 L126.0 358.5Z"/>
<path d="M140.3 359.4 L140.4 366.0 L142.5 373.0 L145.8 380.9 L149.2 389.8 L151.6 399.3 L151.7 408.9 L149.1 417.7 L143.5 424.8 L135.4 429.6 L125.6 432.1 L115.3 432.5 L105.3 431.6 L96.4 430.5 L88.6 430.3 L81.8 431.7 L75.5 435.0 L68.9 440.0 L61.5 445.8 L53.0 451.3 L43.7 455.3 L34.0 456.8 L24.7 455.2 L16.7 450.5 L10.5 443.3 L6.2 434.4 L3.5 425.0 L1.7 416.1 L-0.1 408.5 L-3.0 402.3 L-7.5 397.3 L-13.9 392.8 L-21.7 388.2 L-30.0 382.7 L-37.5 376.0 L-43.1 368.1 L-45.7 359.4 L-44.9 350.6 L-40.7 342.3 L-33.9 335.1 L-25.6 329.3 L-17.0 324.6 L-9.4 320.6 L-3.3 316.3 L1.0 311.2 L3.8 304.7 L6.1 296.7 L8.6 287.7 L12.3 278.6 L17.8 270.4 L25.0 264.3 L33.7 261.0 L43.2 261.0 L52.7 263.9 L61.5 269.1 L69.2 275.3 L76.0 281.3 L82.1 286.1 L88.4 289.2 L95.3 290.4 L103.5 290.2 L112.9 289.6 L123.1 289.6 L133.3 291.2 L142.4 294.9 L149.4 300.9 L153.5 308.9 L154.7 318.1 L153.1 327.7 L149.7 336.9 L145.7 345.3 L142.2 352.7 L140.3 359.4Z"/>
<path d="M155.2 361.1 L156.5 368.8 L159.9 377.3 L164.3 386.9 L168.4 397.5 L170.7 408.8 L170.1 419.8 L166.0 429.6 L158.6 437.2 L148.4 442.2 L136.6 444.4 L124.5 444.6 L113.2 443.7 L103.2 442.9 L94.6 443.5 L87.0 446.2 L79.7 451.1 L71.9 457.7 L63.0 464.8 L52.9 471.2 L41.8 475.3 L30.6 476.1 L20.1 473.1 L11.2 466.7 L4.4 457.5 L-0.2 446.9 L-3.2 436.0 L-5.5 426.2 L-8.3 417.9 L-12.6 411.3 L-18.9 406.0 L-27.2 401.0 L-36.9 395.6 L-46.7 389.0 L-55.2 380.9 L-60.9 371.4 L-62.8 361.1 L-60.7 350.8 L-54.8 341.3 L-46.3 333.3 L-36.5 326.7 L-26.9 321.3 L-18.7 316.3 L-12.5 310.8 L-8.4 304.1 L-5.8 295.7 L-3.5 285.8 L-0.5 274.9 L4.2 264.3 L11.0 255.2 L20.0 248.9 L30.6 246.2 L41.9 247.2 L52.9 251.4 L63.0 257.7 L71.9 264.8 L79.7 271.3 L87.0 276.0 L94.6 278.5 L103.3 279.0 L113.4 278.2 L124.8 277.2 L136.9 277.4 L148.6 279.7 L158.7 284.8 L166.0 292.5 L169.9 302.4 L170.4 313.5 L168.0 324.8 L163.9 335.4 L159.5 344.9 L156.3 353.3 L155.2 361.1Z"/>
</g>
</svg>
